<!--?xml version="1.0" encoding="utf-8"?-->
<!-- Generator: Adobe Illustrator 19.1.1, SVG Export Plug-In . SVG Version: 6.00 Build 0)  -->
<svg version="1.1" id="_x31_0" xmlns="http://www.w3.org/2000/svg" xmlns:xlink="http://www.w3.org/1999/xlink" x="0px" y="0px" viewBox="0 0 512 512" style="width: 256px; height: 256px; opacity: 1;" xml:space="preserve">
<style type="text/css">
	.st0{fill:#374149;}
</style>
<g>
	<polygon class="st0" points="76.029,398.984 62.088,412.925 102.214,453.041 115.99,439.266 116.05,439.205 116.046,439.205 
		116.155,439.099 	" style="fill: rgb(75, 75, 75);"></polygon>
	<polygon class="st0" points="145.78,339.592 143.223,337.031 139.61,333.422 130.508,342.526 134.105,346.134 136.666,348.691 
		139.238,351.251 144.671,356.682 148.593,360.607 154.532,366.546 158.458,370.483 158.952,370.978 168.066,361.874 
		167.558,361.369 	" style="fill: rgb(75, 75, 75);"></polygon>
	<polygon class="st0" points="142.688,386.246 142.692,386.246 138.766,382.324 132.827,376.385 128.905,372.459 123.471,367.029 
		120.899,364.458 118.342,361.897 114.73,358.288 105.77,367.263 105.74,367.293 105.63,367.402 109.239,371.011 111.796,373.572 
		114.368,376.143 119.802,381.574 123.724,385.499 141.579,403.35 144.14,405.911 147.737,409.509 156.69,400.557 156.731,400.515 
		156.727,400.515 156.837,400.406 153.239,396.797 148.122,391.68 	" style="fill: rgb(75, 75, 75);"></polygon>
	<polygon class="st0" points="145.177,364.023 141.255,360.098 132.419,368.937 132.416,368.937 132.31,369.042 136.232,372.968 	
		" style="fill: rgb(75, 75, 75);"></polygon>
	<polygon class="st0" points="142.171,378.907 146.093,382.83 154.925,374.013 154.928,374.006 155.042,373.9 151.116,369.963 	" style="fill: rgb(75, 75, 75);"></polygon>
	<polygon class="st0" points="167.165,353.914 167.162,353.918 167.052,354.027 170.974,357.952 172.931,355.995 169.006,352.074 	
		" style="fill: rgb(75, 75, 75);"></polygon>
	<path class="st0" d="M502.247,54.191l-26.05-50.086c-1.162-2.236-3.273-3.706-5.807-4.034c-2.526-0.336-5.023,0.531-6.87,2.368
		l-26.378,26.389l-1.859-1.859c-0.596-0.595-0.902-1.425-0.83-2.27l0.63-7.373c0.071-0.841-0.234-1.674-0.83-2.27l-1.086-1.086
		c-1.12-1.12-2.934-1.12-4.054,0l-12.27,12.271c-1.12,1.12-1.12,2.934,0,4.054l1.086,1.086c0.596,0.6,1.426,0.902,2.27,0.83
		l7.372-0.626c0.841-0.072,1.674,0.23,2.27,0.826l1.859,1.859L411.96,54.01l-1.859-1.859c-0.596-0.596-0.898-1.429-0.83-2.27
		l0.63-7.373c0.071-0.845-0.23-1.674-0.83-2.27l-1.086-1.086c-1.12-1.12-2.934-1.12-4.054,0l-12.27,12.27
		c-1.12,1.12-1.12,2.934,0,4.054l1.086,1.086c0.596,0.596,1.43,0.902,2.27,0.83l7.376-0.63c0.841-0.071,1.67,0.234,2.266,0.83
		l1.859,1.859L395.99,69.969l-6.06,20.341l-0.999,1.003l-6.256,6.263l-140.181,140.17l-9.997,9.982
		c-3.345-3.858-9.526-15.834-2.757-25.813c9.982-14.751,11.396-14.751,20.122-24.688c9.186-10.43,10.83-23.176-1.425-35.417
		c-4.718-4.721-17.539-13.074-37.265,0.422c-13.726,9.39-28.946,28.09-37.182,46.379c-8.764,19.484-15.74,37.642-32.193,54.094
		c-12.447,12.444-27.716,17.554-45.39,23.478c-5.396,1.798-10.974,3.669-16.754,5.845c-16.589,6.203-29.674,13.206-39.983,21.4
		c-14.379,11.411-23.686,25.424-27.668,41.65c-4.683,19.062-4.118,38.12,1.69,56.65c6.373,20.378,19.172,40.274,38.038,59.14
		c43.313,43.313,84.563,42.589,100.292,40.27c11.649-1.723,22.984-7.108,32.762-15.582c10.999-9.502,17.953-19.16,25.665-38.327
		c7.858-19.496,18.01-49.075,31.533-64.936c4.612-5.419,23.658-23.915,39.825-28.32c2.496-0.686,4.936-1.316,7.301-1.93
		c7.907-2.04,14.74-3.79,20.159-6.542c9.876-4.997,11.999-12.218,12.048-17.396c0.049-5.543-1.738-10.151-5.298-13.726
		c-6.218-6.207-15.947-7.459-28.282-9.032c-1.03-0.132-2.078-0.264-3.142-0.407c-13.952-1.829-24.138-6.535-33.693-15.619
		c-0.034-0.034-0.068-0.06-0.102-0.094l166.766-166.766l6.264-6.252l0.942-0.954l17.878-3.594l4.875-4.88l1.078,1.078
		c0.6,0.6,0.902,1.43,0.83,2.27l-0.626,7.376c-0.072,0.841,0.23,1.67,0.83,2.27l1.086,1.086c1.116,1.116,2.934,1.116,4.054,0
		l12.27-12.27c1.12-1.12,1.12-2.938,0-4.058l-1.086-1.082c-0.595-0.6-1.429-0.902-2.27-0.83l-7.372,0.626
		c-0.845,0.072-1.674-0.23-2.27-0.83l-1.074-1.07l19.733-19.745l1.078,1.078c0.6,0.596,0.902,1.426,0.83,2.27l-0.626,7.372
		c-0.072,0.841,0.23,1.674,0.83,2.27l1.082,1.086c1.12,1.12,2.938,1.12,4.054,0l12.27-12.27c1.124-1.12,1.124-2.934,0-4.054
		l-1.082-1.086c-0.599-0.596-1.429-0.902-2.27-0.83l-7.376,0.63c-0.841,0.072-1.67-0.234-2.27-0.83l-1.074-1.074l22.527-22.535
		C503.224,61.07,503.865,57.28,502.247,54.191z M397.151,112.049l5.939,5.939L252.471,268.607l-38.595,38.607l-5.939-5.939
		l38.75-38.762L397.151,112.049z M237.561,252.928l150.234-150.234l5.43,5.434L242.874,258.478l-38.86,38.871l-5.434-5.43
		L237.561,252.928z M184.53,220.562c0.882-1.991,1.776-3.994,2.681-6.01c6.905-15.378,20.435-32.366,32.132-40.357
		c7.067-4.838,12.886-6.022,17.038-3.549c0.128,0.075,0.249,0.166,0.374,0.249c0.505,0.336,0.995,0.702,1.448,1.15
		c5.781,5.785,5.973,9.718,0.784,15.623c-2.232,2.534-3.986,4.419-5.517,6.071c-4.997,5.347-8.183,8.91-15.729,20.062
		c-4.363,6.441-5.788,13.485-5.407,20.193c0.003,0.087-0.011,0.17-0.008,0.257c-5.539-0.336-11.139-0.506-16.81-0.494
		c-4.001,0.026-7.923,0.249-11.856,0.442c-1.787,0.053-3.635,0.075-5.396,0.128C180.469,229.725,182.513,225.125,184.53,220.562z
		 M124.994,445.627l-16.249,16.249c-1.814,1.798-4.167,2.703-6.531,2.703c-2.368,0-4.733-0.905-6.531-2.703l-42.434-42.419
		c-3.598-3.598-3.598-9.466,0-13.063l16.249-16.249c1.754-1.738,4.069-2.704,6.531-2.704c2.478,0,4.793,0.966,6.531,2.704
		l6.328,6.328l7.99,8.002l3.922,3.926l5.939,5.939l3.926,3.922l7.991,7.991l2.56,2.56l3.763,3.767
		C128.592,436.177,128.592,442.03,124.994,445.627z M144.502,449.104c-2.945-2.946-2.945-7.727,0-10.672
		c2.945-2.946,7.726-2.946,10.672,0c2.945,2.945,2.945,7.726,0,10.672C152.228,452.049,147.446,452.049,144.502,449.104z
		 M164.65,478.898c-2.945,2.946-7.726,2.946-10.671,0c-2.946-2.945-2.946-7.726,0-10.671c2.945-2.946,7.726-2.946,10.671,0
		C167.595,471.171,167.595,475.953,164.65,478.898z M186.476,439.145c-2.949,2.945-7.726,2.945-10.672,0
		c-2.949-2.946-2.949-7.727,0-10.672c2.946-2.945,7.723-2.945,10.672,0C189.421,431.418,189.421,436.199,186.476,439.145z
		 M196.854,348.054l2.561,2.557l13.281,13.293l-15.936,15.921l-15.838-15.838l-2.561-2.56l-26.834,26.838l2.56,2.561l2.557,2.556
		l7.026,7.026l-15.933,15.936l-7.025-7.025l-5.121-5.118l-17.49,17.49l-5.434-5.43l17.494-17.493l-3.926-3.922l-17.49,17.49
		l-5.939-5.939l17.49-17.49l-3.798-3.797l-0.015-0.019l-0.109-0.11l-17.494,17.494l-5.43-5.434l17.49-17.49l-2.56-2.561l-2.557-2.56
		l-7.026-7.026l15.933-15.932l7.029,7.025l2.557,2.557l2.56,2.561l8.945-8.945l-2.572-2.561l-2.556-2.557l-7.014-7.025
		l15.932-15.936l7.026,7.025l2.561,2.557v0.004l2.458,2.455l0.004,0.003l0.109,0.11l41.696-41.706l5.434,5.434l-41.699,41.706
		l3.926,3.922l1.954-1.954l-1.592-1.595l15.937-15.932l1.466,1.478l0.004,0.003l0.11,0.11l23.817-23.818l5.939,5.939l-23.7,23.693
		l-0.008,0.004l-0.109,0.11l3.922,3.922l23.817-23.802l5.434,5.43l-23.701,23.689l-0.007,0.008l-0.11,0.109L196.854,348.054z
		 M246.29,293.499l-23.059,23.071l-5.43-5.434l38.498-38.509l150.713-150.714l5.434,5.43L246.29,293.499z M461.02,30.627
		l-55.516,55.504c-2.21,2.222-6.241,0.219-5.796-2.934c0-0.034,0-0.06,0.015-0.083l0.614-3.937c0.11-0.675,0.422-1.29,0.894-1.761
		l53.586-53.586c1.026-1.029,2.67-1.282,3.97-0.486c0.845,0.521,1.58,1.256,2.112,2.21l0.618,1.101
		C462.242,27.983,462.049,29.601,461.02,30.627z" style="fill: rgb(75, 75, 75);"></path>
	<polygon class="st0" points="168.44,344.418 168.414,344.441 168.417,344.441 168.308,344.55 196.759,373.006 205.719,364.058 
		205.765,364.012 205.874,363.903 177.422,335.451 	" style="fill: rgb(75, 75, 75);"></polygon>
</g>
</svg>
