<!--?xml version="1.0" encoding="utf-8"?-->
<!-- Generator: Adobe Illustrator 18.1.1, SVG Export Plug-In . SVG Version: 6.00 Build 0)  -->

<svg version="1.1" id="_x31_0" xmlns="http://www.w3.org/2000/svg" xmlns:xlink="http://www.w3.org/1999/xlink" x="0px" y="0px" viewBox="0 0 512 512" style="width: 256px; height: 256px; opacity: 1;" xml:space="preserve">
<style type="text/css">
	.st0{fill:#374149;}
</style>
<g>
	<path class="st0" d="M482.55,136.773c-3.984-7.414-8.3-14.722-12.953-21.695C423.77,45.777,345.168,0.055,256.054,0.055
		c-89.117,0-167.714,45.722-213.656,115.023c-4.648,6.973-8.969,14.282-12.953,21.695C10.625,172.422,0,212.938,0,256
		c0,141.148,114.906,255.945,256.054,255.945C397.199,511.945,512,397.148,512,256C512,212.938,501.371,172.422,482.55,136.773z
		 M367.465,422.742c-12.012,7.985-24.926,14.75-38.633,20c19.578-22.937,35.203-55.148,44.863-93.339
		c0.684-2.594,1.278-5.278,1.898-7.938c29.164-8.301,54.375-19.578,74.078-33.102C436.93,355.82,407.222,396.188,367.465,422.742z
		 M354.164,183.808c-2.11,0.493-4.191,1.012-6.336,1.454c-24.442,5.43-51.141,8.695-79.117,9.445
		c-0.535,0.012-1.059,0.059-1.598,0.066V55.891c0.234,0.054,0.472,0.07,0.706,0.129c38.352,8.469,71.29,58.348,85.758,124.809
		C353.789,181.812,353.961,182.82,354.164,183.808z M267.125,216.922c30.11-0.664,58.562-3.984,84.578-9.629
		c2.11-0.434,4.145-0.93,6.207-1.398c0.41,2.855,0.746,5.762,1.086,8.664c0.286,2.43,0.547,4.863,0.782,7.309
		c0.566,5.874,0.992,11.82,1.266,17.832c0.109,2.378,0.191,4.758,0.254,7.14c0.078,3.047,0.164,6.09,0.164,9.161
		c0,23.706-2.367,46.453-6.546,67.75c-26.27,6.274-55.485,10.156-86.18,11.012c-0.547,0.011-1.074,0.058-1.621,0.07v-117.91H267.125
		z M267.114,356.976c29.183-0.64,56.855-3.789,82.218-9.054c-0.695,2.465-1.351,4.957-2.106,7.363
		c-16.469,54.23-45.762,93.289-79.406,100.817c-0.234,0.05-0.472,0.066-0.706,0.117V356.976z M429.301,155.043
		c-13.828,8.317-30.606,15.489-49.301,21.481c-0.95,0.297-1.82,0.629-2.782,0.922c-0.164-0.789-0.297-1.594-0.465-2.374
		c-9.488-43.829-26.426-80.668-48.206-106.078c42.301,16.316,77.566,46.602,100.238,85.234
		C428.946,154.508,429.141,154.762,429.301,155.043z M380.406,316.547c2.89-19.27,4.582-39.496,4.582-60.546
		c0-19.493-1.374-38.406-3.98-56.321c22.129-6.668,41.976-14.984,58.48-24.824c11.07,24.797,17.161,52.254,17.161,81.145
		c0,6.289-0.332,12.574-0.883,18.746c-14.313,14.742-36.371,27.719-63.664,37.825C388.313,313.953,384.414,315.281,380.406,316.547z
		 M192.606,96.418c0.746-1.098,1.531-2.102,2.293-3.16c1.203-1.66,2.39-3.348,3.625-4.914c0.266-0.339,0.543-0.64,0.813-0.972
		c3.691-4.594,7.515-8.798,11.469-12.5c0.133-0.122,0.27-0.227,0.402-0.348c1.942-1.801,3.91-3.5,5.906-5.07
		c1.031-0.809,2.09-1.508,3.137-2.254c1.082-0.774,2.152-1.598,3.246-2.305c6.684-4.282,13.641-7.301,20.797-8.875
		c0.226-0.054,0.454-0.07,0.68-0.125v135.316l-0.004,3.57c-28.554-0.664-55.786-3.984-80.687-9.519
		c-2.165-0.446-4.25-0.957-6.36-1.438c0.215-0.996,0.387-2.004,0.614-2.996c7.004-32.172,18.34-60.394,32.5-81.981
		C191.562,98.047,192.07,97.2,192.606,96.418z M62.324,308.364v-0.031c19.699,13.531,44.914,24.812,74.082,33.121
		c0.621,2.664,1.21,5.352,1.898,7.95c7.957,31.195,19.859,58.301,34.617,79.722c3.278,4.828,6.657,9.469,10.215,13.718
		C124.278,419.976,79.012,370.133,62.324,308.364z M72.508,174.856c16.504,9.84,36.351,18.156,58.48,24.824
		c-2.602,17.914-3.976,36.828-3.976,56.321c0,18.55,1.374,36.422,3.726,53.609c0.297,2.336,0.55,4.676,0.886,7.012
		c-32.722-10.582-59.086-25.106-75.39-41.914c-0.551-6.086-0.883-12.394-0.883-18.706C55.351,227.109,61.438,199.652,72.508,174.856
		z M82.695,155.039c22.641-39.007,58.188-69.578,100.786-86.019c-21.821,25.41-38.723,62.238-48.118,106.051
		c-0.168,0.781-0.27,1.617-0.434,2.406c-19.714-6.121-37.309-13.586-51.879-22.242C82.938,155.168,82.809,155.105,82.695,155.039z
		 M162.707,347.922c25.378,5.266,53.066,8.418,82.266,9.058v99.23c-0.226-0.042-0.454-0.062-0.68-0.109
		c-33.644-7.528-63.05-46.703-79.523-100.934C164.019,352.816,163.383,350.348,162.707,347.922z M244.969,334.84
		c-31.328-0.75-61.125-4.706-87.89-11.102c-4.176-21.293-6.539-44.034-6.539-67.738c0-3.086,0.086-6.149,0.164-9.207
		c0.058-2.355,0.141-4.707,0.25-7.055c0.274-6.027,0.699-11.988,1.266-17.878c0.238-2.45,0.497-4.887,0.786-7.321
		c0.34-2.894,0.676-5.793,1.082-8.644c2.066,0.473,4.098,0.965,6.211,1.398c26.012,5.645,54.57,8.965,84.676,9.629v114.914
		L244.969,334.84z" style="fill: rgb(75, 75, 75);"></path>
</g>
</svg>
